<svg width="24" height="25" viewBox="0 0 24 25" fill="none" xmlns="http://www.w3.org/2000/svg">
<path d="M12 12.928C15.0319 12.928 17.5714 14.151 17.5714 16.7852C17.5714 18.0985 16.7765 18.928 15.6964 18.928H8.30354C7.18252 18.928 6.42854 18.3161 6.42854 16.9994C6.42854 14.2021 8.93488 12.928 12 12.928ZM5.8101 12.9284C6.13736 12.9405 6.40791 13.1997 6.42742 13.5333C6.44816 13.8878 6.17764 14.1919 5.8232 14.2126C4.15921 14.31 2.99995 15.0642 2.99995 16.3566C2.99995 16.678 3.1428 16.7852 3.42852 16.7852H4.49995L4.56186 16.7881C4.88785 16.8193 5.14281 17.0939 5.14281 17.428C5.14281 17.7831 4.85499 18.0709 4.49995 18.0709H3.42852L3.34452 18.0692C2.45305 18.0347 1.71423 17.4475 1.71423 16.3566C1.71423 14.217 3.49078 13.0612 5.74812 12.9291L5.8101 12.9284ZM18.1898 12.9284L18.2518 12.9291C20.5091 13.0612 22.2857 14.217 22.2857 16.3566C22.2857 17.4475 21.5469 18.0347 20.6554 18.0692L20.5714 18.0709H19.5C19.1449 18.0709 18.8571 17.7831 18.8571 17.428C18.8571 17.0939 19.1121 16.8193 19.4381 16.7881L19.5 16.7852H20.5714C20.8571 16.7852 21 16.678 21 16.3566C21 15.0642 19.8407 14.31 18.1767 14.2126C17.8223 14.1919 17.5518 13.8878 17.5725 13.5333C17.592 13.1997 17.8626 12.9405 18.1898 12.9284ZM12 14.2137C9.55284 14.2137 7.71425 15.1484 7.71425 16.9994C7.71425 17.4929 7.8194 17.6212 8.19022 17.6398L8.30354 17.6423H15.6964C16.0538 17.6423 16.2857 17.4004 16.2857 16.7852C16.2857 15.1171 14.41 14.2137 12 14.2137ZM6.85695 5.6423C6.94776 5.6423 7.03817 5.64635 7.12798 5.65442C7.4816 5.68617 7.74252 5.99858 7.71077 6.35219C7.67901 6.70581 7.36661 6.96673 7.01299 6.93498C6.9614 6.93035 6.90936 6.92801 6.85695 6.92801C5.91017 6.92801 5.14266 7.69553 5.14266 8.6423C5.14266 9.58907 5.91017 10.3566 6.85695 10.3566C6.95992 10.3566 7.06144 10.3476 7.16085 10.3298C7.21404 10.3203 7.2666 10.3084 7.31839 10.2939L7.38633 10.2777C7.70846 10.2188 8.02866 10.4134 8.11982 10.7349C8.21668 11.0765 8.01831 11.4319 7.67673 11.5287L7.52594 11.5673L7.3867 11.5956C7.21283 11.6266 7.03573 11.6423 6.85695 11.6423C5.20009 11.6423 3.85695 10.2992 3.85695 8.6423C3.85695 6.98544 5.20009 5.6423 6.85695 5.6423ZM17.1444 5.6423C18.8012 5.6423 20.1444 6.98544 20.1444 8.6423C20.1444 10.2992 18.8012 11.6423 17.1444 11.6423C16.9656 11.6423 16.7885 11.6266 16.6146 11.5956L16.4754 11.5673L16.3246 11.5287C15.983 11.4319 15.7846 11.0765 15.8815 10.7349C15.9727 10.4134 16.2929 10.2188 16.615 10.2777L16.6829 10.2939C16.7347 10.3084 16.7873 10.3203 16.8405 10.3298C16.9399 10.3476 17.0414 10.3566 17.1444 10.3566C18.0911 10.3566 18.8587 9.58907 18.8587 8.6423C18.8587 7.69553 18.0911 6.92801 17.1444 6.92801C17.092 6.92801 17.0399 6.93035 16.9883 6.93498C16.6347 6.96673 16.3223 6.70581 16.2906 6.35219C16.2588 5.99858 16.5197 5.68617 16.8733 5.65442C16.9631 5.64635 17.0536 5.6423 17.1444 5.6423ZM12 4.78516C13.8935 4.78516 15.4285 6.32018 15.4285 8.21373C15.4285 10.1073 13.8935 11.6423 12 11.6423C10.1064 11.6423 8.5714 10.1073 8.5714 8.21373C8.5714 6.32018 10.1064 4.78516 12 4.78516ZM12 6.07087C10.8165 6.07087 9.85711 7.03026 9.85711 8.21373C9.85711 9.39719 10.8165 10.3566 12 10.3566C13.1834 10.3566 14.1428 9.39719 14.1428 8.21373C14.1428 7.03026 13.1834 6.07087 12 6.07087Z" fill="#7C8092"/>
</svg>
