<svg width="24" height="25" viewBox="0 0 24 25" fill="none" xmlns="http://www.w3.org/2000/svg">
<path d="M11.9999 2.5C14.53 2.5 16.6666 3.56829 16.6666 5.16667L16.6672 7.85851C18.8377 8.02405 20.5758 8.99304 20.6631 10.3894L20.6666 10.5V18.5L20.6631 18.6106C20.567 20.1475 18.4712 21.1667 15.9999 21.1667C13.7576 21.1667 11.8243 20.3275 11.4136 19.024C10.5542 19.5374 9.33156 19.8333 7.99992 19.8333C5.52867 19.8333 3.43284 18.8142 3.3367 17.2773L3.33325 17.1667V11.8333L3.3367 11.7227C3.42406 10.3262 5.16246 9.35718 7.33333 9.1918L7.33325 5.16667L7.3367 5.05602C7.43284 3.51918 9.52867 2.5 11.9999 2.5ZM19.3336 17.7373C18.4791 18.2219 17.2907 18.5 15.9999 18.5C14.7094 18.5 13.5213 18.2221 12.6669 17.7376L12.6666 18.5L12.6708 18.5576C12.7573 19.1552 14.1707 19.8333 15.9999 19.8333C17.8291 19.8333 19.2425 19.1552 19.329 18.5576L19.3333 18.5L19.3336 17.7373ZM11.3336 16.4039C10.4791 16.8886 9.29075 17.1667 7.99992 17.1667C6.70942 17.1667 5.5213 16.8887 4.66686 16.4043L4.66659 17.1667L4.67079 17.2242C4.75734 17.8219 6.17073 18.5 7.99992 18.5C9.8291 18.5 11.2425 17.8219 11.329 17.2242L11.3333 17.1667L11.3336 16.4039ZM19.3336 15.0706C18.4791 15.5553 17.2907 15.8333 15.9999 15.8333C14.7094 15.8333 13.5213 15.5554 12.6669 15.071L12.6666 15.8333C12.6666 16.4441 14.1117 17.1667 15.9999 17.1667C17.8291 17.1667 19.2425 16.4885 19.329 15.8909L19.3333 15.8333L19.3336 15.0706ZM11.3336 13.7373C10.4791 14.2219 9.29075 14.5 7.99992 14.5C6.70942 14.5 5.5213 14.2221 4.66686 13.7376L4.66659 14.5C4.66659 15.1108 6.11173 15.8333 7.99992 15.8333C9.8291 15.8333 11.2425 15.1552 11.329 14.5576L11.3333 14.5L11.3336 13.7373ZM19.3336 12.4039C18.4791 12.8886 17.2907 13.1667 15.9999 13.1667C14.7094 13.1667 13.5213 12.8887 12.6669 12.4043L12.6666 13.1667C12.6666 13.7774 14.1117 14.5 15.9999 14.5C17.8291 14.5 19.2425 13.8219 19.329 13.2242L19.3333 13.1667L19.3336 12.4039ZM7.99992 10.5C6.11173 10.5 4.66659 11.2226 4.66659 11.8333C4.66659 12.4441 6.11173 13.1667 7.99992 13.1667C9.88811 13.1667 11.3333 12.4441 11.3333 11.8333C11.3333 11.2226 9.88811 10.5 7.99992 10.5ZM15.9999 9.16667C14.1117 9.16667 12.6666 9.88924 12.6666 10.5C12.6666 11.1108 14.1117 11.8333 15.9999 11.8333C17.8881 11.8333 19.3333 11.1108 19.3333 10.5C19.3333 9.88924 17.8881 9.16667 15.9999 9.16667ZM15.3336 7.0706C14.4791 7.55526 13.2907 7.83333 11.9999 7.83333C10.7094 7.83333 9.5213 7.55541 8.66686 7.07097L8.66658 7.83333C8.66658 8.44409 10.1117 9.16667 11.9999 9.16667L11.9136 9.16534C12.612 8.4435 13.8741 7.96998 15.3313 7.85862L15.3333 7.83333L15.3336 7.0706ZM11.9999 3.83333C10.1117 3.83333 8.66658 4.55591 8.66658 5.16667C8.66658 5.77743 10.1117 6.5 11.9999 6.5C13.8881 6.5 15.3333 5.77743 15.3333 5.16667C15.3333 4.55591 13.8881 3.83333 11.9999 3.83333Z" fill="#7C8092"/>
</svg>
