<svg width="24" height="25" viewBox="0 0 24 25" fill="none" xmlns="http://www.w3.org/2000/svg">
<g id="stars_3_outline_56">
<g id="&#226;&#134;&#179; Icon Color">
<path fill-rule="evenodd" clip-rule="evenodd" d="M6.85714 13.4555C6.70962 13.6915 6.53757 13.9211 6.33692 14.1218C6.13626 14.3224 5.90664 14.4945 5.67064 14.642C5.90664 14.7895 6.13626 14.9616 6.33692 15.1622C6.53757 15.3629 6.70962 15.5925 6.85714 15.8285C7.00467 15.5925 7.17671 15.3629 7.37737 15.1622C7.57802 14.9616 7.80764 14.7895 8.04364 14.642C7.80764 14.4945 7.57802 14.3224 7.37737 14.1218C7.17671 13.9211 7.00467 13.6915 6.85714 13.4555ZM6.17597 11.9743C5.97449 12.4692 5.72777 12.9273 5.43508 13.22C5.14238 13.5126 4.68429 13.7594 4.18943 13.9608C4.13094 13.9847 4.07194 14.0078 4.01263 14.0304C3.81807 14.1044 3.62026 14.1716 3.42671 14.232C3.35255 14.2552 3.27902 14.2773 3.20654 14.2985C2.93115 14.379 2.93115 14.9051 3.20654 14.9855C3.27902 15.0067 3.35255 15.0289 3.42671 15.052C3.62026 15.1125 3.81807 15.1797 4.01263 15.2536C4.07194 15.2762 4.13094 15.2994 4.18943 15.3232C4.68429 15.5247 5.14238 15.7714 5.43508 16.0641C5.72777 16.3568 5.97449 16.8149 6.17597 17.3097C6.19978 17.3682 6.22296 17.4272 6.24551 17.4865C6.3195 17.6811 6.38669 17.8789 6.44713 18.0725C6.47029 18.1466 6.49246 18.2201 6.51364 18.2926C6.59411 18.568 7.12018 18.568 7.20065 18.2926C7.22183 18.2201 7.24399 18.1466 7.26715 18.0725C7.3276 17.8789 7.39479 17.6811 7.46877 17.4865C7.49132 17.4272 7.51451 17.3682 7.53832 17.3097C7.73979 16.8149 7.98651 16.3568 8.27921 16.0641C8.57191 15.7714 9.03 15.5247 9.52486 15.3232C9.58335 15.2994 9.64235 15.2762 9.70165 15.2536C9.89622 15.1797 10.094 15.1125 10.2876 15.052C10.3617 15.0289 10.4353 15.0067 10.5078 14.9855C10.7831 14.9051 10.7831 14.379 10.5078 14.2985C10.4353 14.2773 10.3617 14.2552 10.2876 14.232C10.094 14.1716 9.89622 14.1044 9.70165 14.0304C9.64235 14.0078 9.58335 13.9847 9.52486 13.9608C9.03 13.7594 8.57191 13.5126 8.27921 13.22C7.98651 12.9273 7.73979 12.4692 7.53832 11.9743C7.51451 11.9158 7.49132 11.8568 7.46877 11.7975C7.39479 11.6029 7.3276 11.4051 7.26715 11.2116C7.24399 11.1374 7.22183 11.0639 7.20065 10.9914C7.12018 10.716 6.59411 10.716 6.51364 10.9914C6.49246 11.0639 6.47029 11.1374 6.44713 11.2116C6.38669 11.4051 6.3195 11.6029 6.24551 11.7975C6.22296 11.8568 6.19978 11.9158 6.17597 11.9743Z" fill="#7C8092"/>
<path fill-rule="evenodd" clip-rule="evenodd" d="M15.4286 7.02047C15.1713 7.54778 14.844 8.08205 14.4277 8.4983C14.0115 8.91456 13.4772 9.24187 12.9499 9.49916C13.4772 9.75645 14.0115 10.0838 14.4277 10.5C14.844 10.9163 15.1713 11.4505 15.4286 11.9779C15.6859 11.4505 16.0132 10.9163 16.4294 10.5C16.8457 10.0838 17.38 9.75645 17.9073 9.49916C17.38 9.24187 16.8457 8.91456 16.4294 8.4983C16.0132 8.08205 15.6859 7.54778 15.4286 7.02047ZM14.7533 5.27727C14.4477 6.17046 14.0373 7.07302 13.5199 7.59046C13.0024 8.10791 12.0999 8.5183 11.2067 8.82387C11.112 8.85627 11.0174 8.88748 10.9234 8.91752C10.6968 8.98995 10.4735 9.05555 10.2601 9.11435C10.1958 9.13208 10.1324 9.14918 10.07 9.16567C9.78618 9.24077 9.78618 9.75755 10.07 9.83265C10.1324 9.84914 10.1958 9.86625 10.2601 9.88397C10.4735 9.94278 10.6968 10.0084 10.9234 10.0808C11.0174 10.1108 11.112 10.1421 11.2067 10.1745C12.0999 10.48 13.0024 10.8904 13.5199 11.4079C14.0373 11.9253 14.4477 12.8279 14.7533 13.7211C14.7857 13.8157 14.8169 13.9103 14.8469 14.0043C14.9194 14.231 14.985 14.4543 15.0438 14.6677C15.0615 14.732 15.0786 14.7954 15.0951 14.8577C15.1702 15.1416 15.687 15.1416 15.7621 14.8577C15.7786 14.7954 15.7957 14.732 15.8134 14.6677C15.8722 14.4543 15.9378 14.231 16.0102 14.0043C16.0403 13.9103 16.0715 13.8157 16.1039 13.7211C16.4094 12.8279 16.8198 11.9253 17.3373 11.4079C17.8547 10.8904 18.7573 10.48 19.6505 10.1745C19.7451 10.1421 19.8397 10.1108 19.9337 10.0808C20.1604 10.0084 20.3837 9.94278 20.5971 9.88397C20.6614 9.86625 20.7248 9.84914 20.7871 9.83265C21.071 9.75755 21.071 9.24077 20.7871 9.16567C20.7248 9.14918 20.6614 9.13208 20.5971 9.11435C20.3837 9.05555 20.1604 8.98995 19.9337 8.91752C19.8397 8.88748 19.7451 8.85627 19.6505 8.82387C18.7573 8.5183 17.8547 8.10791 17.3373 7.59046C16.8198 7.07302 16.4094 6.17046 16.1039 5.27727C16.0715 5.18259 16.0403 5.08801 16.0102 4.99401C15.9378 4.76736 15.8722 4.54404 15.8134 4.33066C15.7957 4.26635 15.7786 4.20295 15.7621 4.14062C15.687 3.85677 15.1702 3.85677 15.0951 4.14062C15.0786 4.20295 15.0615 4.26635 15.0438 4.33066C14.985 4.54404 14.9194 4.76736 14.8469 4.99401C14.8169 5.08801 14.7857 5.18259 14.7533 5.27727Z" fill="#7C8092"/>
<path d="M13.5451 16.9718C13.462 16.7226 13.1094 16.7226 13.0263 16.9718L12.7463 17.8119C12.6556 18.0841 12.4421 18.2976 12.1699 18.3883L11.3298 18.6684C11.0805 18.7514 11.0805 19.104 11.3298 19.1871L12.1699 19.4671C12.4421 19.5579 12.6556 19.7714 12.7463 20.0435L13.0263 20.8836C13.1094 21.1329 13.462 21.1329 13.5451 20.8836L13.8251 20.0435C13.9158 19.7714 14.1294 19.5579 14.4015 19.4671L15.2416 19.1871C15.4909 19.104 15.4909 18.7514 15.2416 18.6684L14.4015 18.3883C14.1294 18.2976 13.9158 18.0841 13.8251 17.8119L13.5451 16.9718Z" fill="#7C8092"/>
</g>
</g>
</svg>
